<?xml version="1.0" encoding="UTF-8" standalone="no"?>
<svg
   version="1.1"
   id="Layer_1"
   x="0px"
   y="0px"
   viewBox="0 0 1792 1792"
   style="enable-background:new 0 0 1792 1792;"
   xml:space="preserve"
   xmlns="http://www.w3.org/2000/svg"
   xmlns:svg="http://www.w3.org/2000/svg"><defs
   id="defs7" />
<path
   d="m 259.89384,808.7 c -23.6,23.2 -35.9,55.6 -33.6,88.6 -2.4,31.9 10,63 33.6,84.6 l 546.3,548.3 c 45.4,45.4 119,45.4 164.4,0 45.39996,-45.4 45.39996,-119 0,-164.4 l -354.4,-354.4 h 833.69996 c 63.8,0.4 115.8,-51 116.1,-114.8 0,-0.2 0,-0.4 0,-0.7 -0.4,-64 -52.1,-115.8 -116.1,-116.1 H 616.29384 l 354.3,-353.6 c 45.39996,-45.4 45.39996,-119 0,-164.4 -45.4,-45.4 -119,-45.4 -164.4,0 v 0 z"
   id="path2" />
</svg>
