<?xml version="1.0" encoding="iso-8859-1"?>
<!-- Generator: Adobe Illustrator 19.0.0, SVG Export Plug-In . SVG Version: 6.00 Build 0)  -->
<svg version="1.1" id="Capa_1" xmlns="http://www.w3.org/2000/svg" xmlns:xlink="http://www.w3.org/1999/xlink" x="0px" y="0px"
	 viewBox="0 0 491.29 491.29" style="enable-background:new 0 0 491.29 491.29;" xml:space="preserve">
<path d="M481.82,113.212L248.656,25.904c-2.302-0.857-4.854-0.857-7.157,0L6.707,113.822c-4.122,1.199-9.106,7.707-5.419,14.367
	v246.524c0,4.356,2.761,8.224,6.878,9.65l231.043,79.744c1.371,0.788,2.428,1.48,4.85,1.801c3.394,0.45,5.542-0.502,5.558-0.507
	l234.792-81.038c4.117-1.426,6.879-5.294,6.879-9.65V123.382C491.374,118.49,485.637,114.565,481.82,113.212z M450.76,123.382
	l-205.07,76.793l-61.542-23.04l195.319-80.45L450.76,123.382z M351.383,86.168l-205.248,84.537l-5.054,49.097l-38.212-15.392
	v-45.568l212.879-86.019L351.383,86.168z M245.078,46.361l42.396,15.875L90.17,141.947l-50.172-18.791L245.078,46.361z
	 M21.706,138.559l60.747,22.749v56.879l76.163,30.686l5.852-56.86l71.613,26.818v222.595l-214.375-73.99V138.559z M470.872,367.435
	l-214.375,73.99V218.377l214.375-80.271V367.435z"/>
<g>
</g>
<g>
</g>
<g>
</g>
<g>
</g>
<g>
</g>
<g>
</g>
<g>
</g>
<g>
</g>
<g>
</g>
<g>
</g>
<g>
</g>
<g>
</g>
<g>
</g>
<g>
</g>
<g>
</g>
</svg>
